<svg width="103" height="105" viewBox="0 0 103 105" fill="none" xmlns="http://www.w3.org/2000/svg">
<path d="M14.25 33.5L2.25 41.5L1.80952 78.9412C1.77676 81.7254 4.02475 84 6.80917 84H54.25" stroke="#9CBCFF" stroke-width="3"/>
<path d="M69.75 33L82.25 41.5M82.25 41.5V56.5M82.25 41.5L61.75 55.5M2.25 41.5L22.75 55.5M11.75 74L29.25 58.5H54.75L61.75 65" stroke="#9CBCFF" stroke-width="3"/>
<path d="M15.75 49V2H68.75V49M26.25 14H34.25M32.25 22H59.25M26.25 33.5H59.25M25.75 44.5H59.25" stroke="#D6E3FE" stroke-width="3"/>
<circle cx="81.75" cy="84" r="19" stroke="#FD744F" stroke-width="3"/>
<path d="M71.75 86.5L79.25 94L93.25 77.5" stroke="#FD744F" stroke-width="3"/>
</svg>
